# xmcd
#
# Track frame offsets:
#	150
#	9012
#	19703
#	28515
#	39555
#	47956
#	57896
#	69796
#	77725
#	87387
#	96172
#	105853
#	116625
#	126579
#	136524
#	145084
#	156880
#	166665
#	177067
#	189462
#
# Disc length: 2636 seconds
#
# Revision: 0
# Processed by: cddbd v1.5.2PL0 Copyright (c) Steve Scherf et al.
# Submitted via: EZCDAudioConverter 2.0.3.1
#
DISCID=f00a4a14
DTITLE=Country and Western Nuggets CD 6
DYEAR=1900
DGENRE=
TTITLE0=Young Faron - Alone With You
TTITLE1=Thompson Hank - Rockin' In The Congo
TTITLE2=Zang Tommy - I'm Gonna Slip You Offa My Mind
TTITLE3=Skinner Jimmie - Reasons To Live
TTITLE4=Maddox Rose - My Little Baby
TTITLE5=McDonald Skeets - Cheek To Cheek With The Blues
TTITLE6=Louvin Brothers - Red Hen Hop
TTITLE7=Mauldin Dickie - See How You Stand
TTITLE8=Crum Simon - Stand Up Sit Down Shut Your Mouth
TTITLE9=Noack Eddie - Thinking Man's Woman
TTITLE10=Husky Ferlin - Wang Dang Doo
TTITLE11=Mosby Johnny and Jonie - You Can't Hurt Me Anymore
TTITLE12=Maddox Fred - For Old Times
TTITLE13=Dickerson Dub - My Gal Gertie
TTITLE14=Williams Red - Walkin'
TTITLE15=Smith Carl - More Habit Than Desire
TTITLE16=Terry Al - Mis Me Miss Mary Ann
TTITLE17=Young Faron - I Can't Dance
TTITLE18=Heap Jimmy - Sebbin Com Elebbin
TTITLE19=McDuff Eddie - Car Trouble
EXTD=
EXTT0=
EXTT1=
EXTT2=
EXTT3=
EXTT4=
EXTT5=
EXTT6=
EXTT7=
EXTT8=
EXTT9=
EXTT10=
EXTT11=
EXTT12=
EXTT13=
EXTT14=
EXTT15=
EXTT16=
EXTT17=
EXTT18=
EXTT19=
PLAYORDER=
